<?xml version="1.0" encoding="utf-8"?>
<!-- Generator: Adobe Illustrator 23.0.1, SVG Export Plug-In . SVG Version: 6.00 Build 0)  -->
<svg version="1.1" id="bm" xmlns="http://www.w3.org/2000/svg" xmlns:xlink="http://www.w3.org/1999/xlink" x="0px" y="0px"
	 viewBox="0 0 265 104" style="enable-background:new 0 0 265 104;" xml:space="preserve">
<style type="text/css">
	.st0{fill:url(#SVGID_1_);}
	.st1{fill:url(#SVGID_2_);}
	.st2{enable-background:new    ;}
	.st3{fill:#8255B7;}
	.st4{fill:url(#SVGID_3_);}
	.st5{fill:#212B53;}
	.st6{fill:#00666B;}
	.st7{fill:#FFDA71;}
	.st8{fill:#FFD147;}
	.st9{fill:#FFFFFF;}
	.st10{fill:#63C0C4;}
	.st11{fill:#053C5E;}
	.st12{fill:#01888B;}
	.st13{fill:#121729;}
	.st14{fill:url(#SVGID_4_);}
	.st15{fill:#F8D935;}
	.st16{fill:#FFEDA8;}
	.st17{fill:url(#SVGID_5_);}
	.st18{fill:#FCE78A;}
	.st19{fill:#F3AA7A;}
	.st20{fill:#01676C;}
	.st21{fill:#008682;}
	.st22{fill:#F2A41D;}
	.st23{fill:#F8C853;}
	.st24{clip-path:url(#SVGID_10_);}
	.st25{clip-path:url(#SVGID_11_);}
	.st26{fill:url(#SVGID_12_);}
	.st27{clip-path:url(#SVGID_17_);}
	.st28{clip-path:url(#SVGID_18_);}
	.st29{fill:url(#SVGID_19_);}
	.st30{fill:#F6A505;}
	.st31{fill:none;stroke:#62BFC3;stroke-miterlimit:10;}
	.st32{fill:none;stroke:#62BFC3;stroke-miterlimit:10;stroke-dasharray:3.4,2.72;}
	.st33{fill-rule:evenodd;clip-rule:evenodd;fill:#B99A75;}
	.st34{fill-rule:evenodd;clip-rule:evenodd;fill:#754C28;}
	.st35{fill-rule:evenodd;clip-rule:evenodd;fill:#066937;}
	.st36{fill-rule:evenodd;clip-rule:evenodd;fill:#0E8C45;}
	.st37{fill-rule:evenodd;clip-rule:evenodd;fill:#E6E7E8;}
	.st38{fill-rule:evenodd;clip-rule:evenodd;fill:#FFFFFF;}
	.st39{fill-rule:evenodd;clip-rule:evenodd;fill:#0E1722;}
	.st40{clip-path:url(#SVGID_21_);}
	.st41{fill:#F08712;}
	.st42{fill:#D1574E;}
	.st43{fill:#E36A5C;}
	.st44{fill:#ED776E;}
	.st45{fill:#F7F7F7;}
	.st46{clip-path:url(#SVGID_23_);}
	.st47{fill:#CCCCCC;}
</style>
<title>itxtbooks_subj bhm</title>
<g>
	
		<linearGradient id="SVGID_1_" gradientUnits="userSpaceOnUse" x1="4.8396" y1="111.56" x2="106.1091" y2="111.56" gradientTransform="matrix(1 0 0 1 0 -69.2)">
		<stop  offset="0" style="stop-color:#DFEFEA"/>
		<stop  offset="1" style="stop-color:#BFE3EE"/>
	</linearGradient>
	<path class="st0" d="M102.9,48.3c-1.3-1-3.5-1.2-5.8-1.1c-0.4-1.5-1.2-3-2.5-4.1c-0.6-0.4-1.3-0.8-2-0.9c0.1-3.4-1.5-7.3-8.9-8.7
		c-1.4-3.1-5.3-5.7-14.7-5.7c-10.6,0-15.6,2.9-18,6c-1.9-0.7-4.4-1.1-7.7-1.1c-11.7,0-15.2,4.3-16.3,7.5c-0.1,0.5-0.6,0.8-1.1,0.6
		c-0.2,0-0.4-0.2-0.6-0.4c-1.2-2.1-3.2-4.1-6.4-2.7c-3.2,1.3-4.4,3.6-4.8,5.3c-0.2,1-1.1,1.6-2.1,1.5c0,0-0.1,0-0.1,0
		c-1.6-0.4-3.7-0.6-5.5,0.9c-3.3,2.8,0,7,0,7h5.4c-0.2,2.2,1.5,4.3,1.5,4.3h92.9C106.1,56.7,106.1,50.8,102.9,48.3z"/>
	
		<linearGradient id="SVGID_2_" gradientUnits="userSpaceOnUse" x1="200.6131" y1="144.501" x2="260.1604" y2="144.501" gradientTransform="matrix(1 0 0 1 0 -69.2)">
		<stop  offset="0" style="stop-color:#DFEFEA"/>
		<stop  offset="1" style="stop-color:#BFE3EE"/>
	</linearGradient>
	<path class="st1" d="M258.9,78.4c-0.3-1-0.8-1.9-1.6-2.5c-0.4-0.3-0.8-0.4-1.2-0.5c0.1-2.2-1-4.6-5.6-5.5c-0.9-1.9-3.3-3.6-9.3-3.6
		c-6.7,0-9.9,1.8-11.4,3.8c-1.6-0.5-3.2-0.7-4.9-0.7c-7.4,0-9.6,2.7-10.3,4.8c-0.1,0.3-0.4,0.4-0.7,0.4c-0.1,0-0.3-0.1-0.3-0.3
		c-0.8-1.3-2.1-2.5-4.1-1.7c-2,0.8-2.8,2.3-3,3.3c-0.1,0.6-0.7,1-1.3,0.9c0,0,0,0-0.1,0c-1.2-0.4-2.5-0.2-3.5,0.6
		c-2.1,1.8,0,4.4,0,4.4h3.4c-0.1,1.4,0.9,2.7,0.9,2.7h54.3C260.1,84.3,260.3,78.3,258.9,78.4z"/>
	<g class="st2">
		<path class="st3" d="M98.4,35.3c0,3.4-1.6,4.8-2.5,5.4c-1,0.8-3.8,2.3-10.8,1.1c-0.3,0-0.7-0.3-0.7-0.8V19.3
			c0-0.5,0.3-0.8,0.7-0.8c6.2-1.3,11,1.2,11,6c0,2.4-0.6,3.9-1.3,4.8c-0.1,0.1,0,0.4,0.1,0.4C97.3,30.7,98.4,32.6,98.4,35.3z
			 M88.6,26.8c0,0.2,0.2,0.4,0.4,0.4c0.9,0,3.4,0,3.4-2.6c0-2.3-2.4-2.4-3.4-2.2c-0.2,0-0.4,0.2-0.4,0.4L88.6,26.8L88.6,26.8z
			 M94.4,35.1c0-3.7-3.6-3.9-5.2-3.7c-0.3,0-0.5,0.3-0.5,0.6v5.6c0,0.3,0.3,0.6,0.6,0.6C90.5,38.2,94.4,38.6,94.4,35.1z"/>
		<path class="st3" d="M114.6,41.2c0.1,0.5-0.2,1-0.8,1.1h-2.6c-0.4,0-0.8-0.3-0.9-0.7l-0.8-3.9c0-0.2-0.3-0.4-0.5-0.4l-3.7,0.1
			c-0.3,0-0.4,0.2-0.5,0.4l-0.4,3.7c0,0.5-0.5,0.8-1,0.7h-2.7c-0.4-0.1-0.8-0.5-0.7-1l4.3-22.2c0.1-0.4,0.4-0.7,0.8-0.7h3.6
			c0.4,0,0.7,0.3,0.8,0.7L114.6,41.2z M108.8,33.4l-1.5-8.1c-0.1-0.3-0.6-0.3-0.6,0l-1.3,8.3c0,0.2,0.1,0.3,0.3,0.3l2.9-0.2
			C108.7,33.7,108.9,33.6,108.8,33.4z"/>
		<path class="st3" d="M126.7,33.1h-2.9h-0.9h-1.7c-0.3,0-0.5,0.2-0.5,0.5l0,8.2c0,0.3-0.3,0.6-0.6,0.6h-3c-0.4,0-0.6-0.3-0.6-0.6
			V19.1c0-0.4,0.3-0.7,0.6-0.7h3c0.3,0,0.5,0.2,0.5,0.5l0.1,9.6c0,0.4,0.1,0.5,0.5,0.5h2.6l0,0h2.8c0.3,0,0.5-0.1,0.5-0.5
			c0,0,0-7.2,0-9.4c0-0.3,0.3-0.6,0.6-0.6h3c0.4,0,0.6,0.2,0.6,0.7v22.6c0,0.4-0.1,0.6-0.6,0.6h-3c-0.4,0-0.5-0.3-0.5-0.5v-8.2
			C127.2,33.3,127,33.1,126.7,33.1z"/>
		<path class="st3" d="M148.3,41.2c0.1,0.5-0.2,1-0.8,1.1h-2.6c-0.4,0-0.8-0.3-0.9-0.7l-0.8-3.9c0-0.2-0.3-0.4-0.5-0.4l-3.7,0.1
			c-0.3,0-0.4,0.2-0.5,0.4l-0.4,3.7c0,0.5-0.5,0.8-1,0.7h-2.7c-0.4-0.1-0.8-0.5-0.7-1l4.3-22.2c0.1-0.4,0.4-0.7,0.8-0.7h3.6
			c0.4,0,0.7,0.3,0.8,0.7L148.3,41.2z M142.5,33.4l-1.5-8.1c-0.1-0.3-0.6-0.3-0.6,0l-1.3,8.3c0,0.2,0.1,0.3,0.3,0.3l2.9-0.2
			C142.4,33.7,142.6,33.6,142.5,33.4z"/>
		<path class="st3" d="M162.9,35.1c0,5.4-4.8,7.3-7.4,7.3c-3.7,0-6-3.4-6-3.4s-0.5-0.6,0-1c0.8-0.7,2.5-1.5,2.5-1.5s0.5-0.3,0.8,0
			c0.4,0.4,1.2,1.6,2.6,1.7c1.7,0.1,3.9-0.9,3.9-3.4c0-2.5-1.9-3.9-5.1-5.7c-2.1-1.2-3.7-2.7-3.7-5.8c0-3,2.4-5.6,6.2-5.1
			c3.3,0.4,4.3,1.2,3.9,2.1c-0.3,0.6-1,1.9-1,1.9s-0.1,0.7-1.5,0.1c0,0-0.9-0.4-2.1-0.4c-1.2,0-1.6,1.1-1.6,1.6c0,1,0.4,2.2,4,4.1
			C161.5,29.5,162.9,31.7,162.9,35.1z"/>
		<path class="st3" d="M179.1,41.2c0.1,0.5-0.2,1-0.8,1.1h-2.6c-0.4,0-0.8-0.3-0.9-0.7l-0.8-3.9c0-0.2-0.3-0.4-0.5-0.4l-3.7,0.1
			c-0.3,0-0.4,0.2-0.5,0.4l-0.4,3.7c0,0.5-0.5,0.8-1,0.7h-2.7c-0.4-0.1-0.8-0.5-0.7-1l4.3-22.2c0.1-0.4,0.4-0.7,0.8-0.7h3.6
			c0.4,0,0.7,0.3,0.8,0.7L179.1,41.2z M173.3,33.4l-1.5-8.1c-0.1-0.3-0.6-0.3-0.6,0l-1.3,8.3c0,0.2,0.1,0.3,0.3,0.3l2.9-0.2
			C173.2,33.7,173.4,33.6,173.3,33.4z"/>
	</g>
	<g class="st2">
		<path class="st3" d="M91.9,66.9l-2.2-5.7c0-0.2-0.3-0.1-0.3,0l-0.2,13.4c0,0.4-0.3,0.7-0.7,0.7h-3.1c-0.3,0-0.6-0.3-0.6-0.7
			l0.1-22.7c0-0.4,0.3-0.6,0.6-0.6H89c0.2,0,0.4,0.1,0.6,0.4l3.3,8.7c0.1,0.1,0.3,0.1,0.4,0l3.2-8.6c0.1-0.2,0.3-0.4,0.6-0.4h3.9
			c0.3,0,0.6,0.3,0.6,0.6l0.7,22.6c0,0.4-0.3,0.7-0.6,0.7h-3c-0.3,0-0.6-0.2-0.6-0.5l-0.3-14.3c0-0.2-0.3-0.2-0.3,0l-2.5,6.4
			c-0.1,0.3-0.3,0.5-0.6,0.5l-1.6,0C92.2,67.3,92,67.1,91.9,66.9z"/>
		<path class="st3" d="M113.3,75.3h-8.6c-0.5,0-0.6-0.2-0.6-0.6V52c0-0.4,0.3-0.7,0.6-0.7h8.7c0.4,0,0.6,0.2,0.6,0.6v2.6
			c0,0.4-0.1,0.6-0.7,0.6h-5c-0.3,0-0.5,0.2-0.5,0.5l0,4.1c0,0.4,0.1,0.5,0.5,0.5h2.9c0.4,0,0.6,0.2,0.6,0.7l0,2.8
			c0,0.4-0.3,0.6-0.6,0.6h-2.9c-0.4,0-0.5,0.2-0.5,0.5l0,5.7c0,0.3,0.1,0.5,0.5,0.5h5.1c0.4,0,0.6,0.2,0.6,0.6v2.9
			C114,75.1,113.8,75.3,113.3,75.3z"/>
		<path class="st3" d="M116.1,74.4l0-22.2c0-0.4,0.3-0.8,0.8-0.8h2.9c0.5,0,0.8,0.3,0.8,0.8L120.4,71c0,0.3,0.1,0.4,0.4,0.4l3.6-0.1
			c0.4,0,0.6,0.2,0.6,0.6l0.1,2.9c0,0.4-0.1,0.6-0.6,0.6H117C116.5,75.3,116.1,75,116.1,74.4z"/>
		<path class="st3" d="M141.1,74.1c0.1,0.5-0.2,1-0.8,1.1h-2.6c-0.4,0-0.8-0.3-0.9-0.7l-0.8-3.9c0-0.2-0.3-0.4-0.5-0.4l-3.7,0.1
			c-0.3,0-0.4,0.2-0.5,0.4l-0.4,3.7c0,0.5-0.5,0.8-1,0.7h-2.7c-0.4-0.1-0.8-0.5-0.7-1l4.3-22.2c0.1-0.4,0.4-0.7,0.8-0.7h3.6
			c0.4,0,0.7,0.3,0.8,0.7L141.1,74.1z M135.4,66.3l-1.5-8.1c-0.1-0.3-0.6-0.3-0.6,0l-1.3,8.3c0,0.2,0.1,0.3,0.3,0.3l2.9-0.2
			C135.3,66.6,135.4,66.5,135.4,66.3z"/>
		<path class="st3" d="M157.7,52.2c-0.1,0.2-4.5,10.1-5.4,11.8c-0.1,0.2-0.1,0.4-0.1,0.6l0.2,9.8c0,0.4-0.3,0.8-0.7,0.8h-3.2
			c-0.4,0-0.8-0.3-0.8-0.8v-9.9c0-0.2,0-0.4-0.1-0.5l-4.7-11.9c-0.2-0.4,0-0.8,0.4-0.8s3.2,0,3.2,0c0.4,0,0.5,0.1,0.7,0.4l2.7,7.1
			c0,0.1,0.2,0.1,0.3,0l3.3-7.1c0.2-0.4,0.3-0.4,0.6-0.4l3.3,0C157.7,51.4,157.9,51.8,157.7,52.2z"/>
		<path class="st3" d="M173.3,62.8c0,7.2-0.5,12.5-6.8,12.5c-5.6,0-6.8-5.9-6.8-11.2c0-3.1,0-9.5,0-11.9c0-0.5,0.5-0.8,1-0.8h2.4
			c0.5,0,0.9,0.5,0.9,1c0,2.3-0.1,8-0.1,11.9c0,4.9,1.1,7,2.6,7c2.1,0,2.8-2.3,2.8-5.3c0-1.9-0.1-10.7-0.1-13.6
			c0-0.5,0.4-0.8,0.9-0.9l2.3-0.1c0.5,0,1,0.4,1,0.9C173.3,54.4,173.3,59.1,173.3,62.8z"/>
	</g>
	
		<linearGradient id="SVGID_3_" gradientUnits="userSpaceOnUse" x1="222.0271" y1="76.6814" x2="249.2196" y2="76.6814" gradientTransform="matrix(1 0 0 1 0 -69.2)">
		<stop  offset="0" style="stop-color:#DFEFEA"/>
		<stop  offset="1" style="stop-color:#BFE3EE"/>
	</linearGradient>
	<path class="st4" d="M222.1,8.1c-1,4.3,9.2,4.9,13.4,4.9c1.2,0,2.3-0.1,3.5-0.3c3.5-0.7,11.3-2.6,10.2-5.2c-1.4-3.3-5.6-1-5.6-1
		s0.5-2.5-6.6-4.1s-7.1,3.8-7.1,3.8S223.3,2.7,222.1,8.1z"/>
	<path class="st5" d="M85.8,75c0,0.6-2.1,1.6-5.3,1.6c-3.2,0-5.8-0.5-5.8-1.2c0-0.7,2.6-1.1,5.8-1.1S85.8,74.3,85.8,75z"/>
	<path class="st6" d="M71.3,52.7c0,0-1.4,6.5-0.7,9c0.3,0.9,0.8,1.7,1.6,2.2c1.5,1.2,2.4,2.9,2.4,4.8c0,2,0,4.3,0.8,5.1
		c0.6,0.8,1.4,1.5,2.3,2.1h2.8V64.4c-1.1-2.1-2.8-3.7-4.9-4.8C72.1,57.8,71.3,52.7,71.3,52.7z"/>
	<path class="st7" d="M78.8,76c-0.1,0-2.4-1.7-2.4-7.1c0-5.3-3.7-9.9-3.8-9.9l0.2-0.1c0,0,3.8,4.7,3.8,10c0,5.2,2.3,6.9,2.3,6.9
		L78.8,76z"/>
	<path class="st8" d="M83.9,75.4c0,0,1.8-7.1,1.8-8.9c0-1.1-0.6-2.5-1.2-3.5c-0.4-0.8-0.6-1.8-0.6-2.7c0.1-1.5,0.2-3.7-0.1-4.9
		c-0.1-0.7-1.3-2.5-3.3-4.2c-1.2-1.1-1.9-2.7-1.8-4.4c0.5-6.2-2.1-6.6-2.1-6.6s1.2,1.2-1.6,5.8c-1.8,2.9-0.1,6.7,1.4,9
		c0.9,1.5,1.3,3.3,1,5c-0.3,1.6-0.5,3.6-0.2,4.8c0.2,0.9,0.6,1.7,1.2,2.5c0.7,1,1,2.1,1.1,3.3l0,4.9L83.9,75.4L83.9,75.4z"/>
	<path class="st9" d="M82.1,75.5l-0.2-0.1c0-0.1,3.3-7.7-0.4-13.8c-2.5-4.3-4.3-9.1-5.1-14l0.2,0c0.8,4.9,2.6,9.7,5.1,14
		C85.5,67.7,82.2,75.4,82.1,75.5z"/>
	<path class="st10" d="M74.8,75.2c0,0-2.5,3.4,0,6.1c1.5,1.5,4.8,1.4,7.4,1.2c2.7-0.3,4.7-2.7,4.5-5.4c0-0.8-0.4-1.6-1.1-2.2
		C82.1,75.5,78.4,75.7,74.8,75.2z"/>
	<path class="st11" d="M74,80.2c0.2,0.4,0.4,0.8,0.8,1.1c1.5,1.5,4.8,1.4,7.4,1.2c1.6-0.2,3.1-1.2,3.9-2.5
		C82.1,80.5,78,80.7,74,80.2z"/>
	<path class="st10" d="M243.9,22.7c0,0-2.8,3.2-4.1,3.7s-3.1,0.8-3.5-0.8s1.4-2.6,2.7-3C240.2,22.1,243.9,22.7,243.9,22.7z"/>
	<path class="st12" d="M246.9,20.9c0,0-3.4,0.9-4.5,0.6c-1.1-0.3-2.4-0.9-1.8-2.3c0.6-1.3,2.2-1.1,3.2-0.8
		C244.8,18.7,246.9,20.9,246.9,20.9z"/>
	<path class="st12" d="M246.5,21c0,0,0.7,3.1,0.3,4.3c-0.4,1.2-1.2,2.7-2.5,2.5c-1.3-0.2-1-1.8-0.6-2.9C244,23.7,246.5,21,246.5,21z
		"/>
	<path class="st5" d="M252,16.1C252,16.1,252,16.1,252,16.1c0.2,0.1,0.2,0.2,0.1,0.3l0,0c-4.5,4.5-9,7.3-13.8,8.7
		c-0.1,0-0.2,0-0.2-0.1v0c0-0.1,0-0.2,0.2-0.2c4.8-1.4,9.2-4.2,13.6-8.6C251.8,16.2,251.9,16.1,252,16.1z"/>
	<path class="st13" d="M241.9,19.8c0.1,0,3,1.3,4.9,1.2l0.3-0.3c0,0,0.1-0.1,0.2-0.1l0,0c0,0,0,0-0.1,0c-1.8,0.3-5-1.1-5-1.1
		c-0.1,0-0.2,0-0.3,0.1C241.8,19.6,241.8,19.7,241.9,19.8C241.8,19.7,241.9,19.7,241.9,19.8z"/>
	<path class="st13" d="M244.6,25.9c0-0.1,0.8-3.5,2.1-5.2c0.1,0,0.2-0.1,0.4-0.1c0.1,0,0.1,0,0.2-0.1l0,0c0,0,0,0,0,0.1
		c-1.2,1.4-2.2,5.3-2.2,5.3c0,0.1-0.1,0.2-0.2,0.2S244.7,26,244.6,25.9C244.6,25.9,244.6,25.9,244.6,25.9z"/>
	
		<linearGradient id="SVGID_4_" gradientUnits="userSpaceOnUse" x1="-1506.5396" y1="156.3134" x2="-1414.2742" y2="156.3134" gradientTransform="matrix(-1 0 0 1 -1377.92 -69.2)">
		<stop  offset="0" style="stop-color:#BFE3EE"/>
		<stop  offset="1" style="stop-color:#DFEFEA"/>
	</linearGradient>
	<path class="st14" d="M128.6,101.6H38.5c0,0-4.9-6.2,0-10.3c2.7-2.3,5.9-2.1,8.2-1.4c1.4,0.4,2.9-0.4,3.3-1.9c0-0.1,0-0.2,0-0.2
		c0.5-2.5,2.2-5.9,7.1-7.8c4.8-1.9,7.8,1,9.5,4.1c0.4,0.7,1.2,0.9,1.8,0.5c0.3-0.2,0.5-0.4,0.6-0.8c1.5-4.8,6.8-11.1,24.1-11.1
		c22,0,19.6,11.7,17.6,16.6c-0.2,0.6,0,1.2,0.6,1.5c0.2,0.1,0.4,0.1,0.7,0c3.4-0.7,9.7-1.6,12.5,0.5
		C128.6,94.4,128.6,101.6,128.6,101.6z"/>
	<rect x="206.3" y="66" class="st15" width="11.6" height="4.1"/>
	<rect x="206.3" y="66" class="st16" width="2.9" height="4.1"/>
	
		<linearGradient id="SVGID_5_" gradientUnits="userSpaceOnUse" x1="197.0867" y1="107.6151" x2="227.0412" y2="107.6151" gradientTransform="matrix(1 0 0 1 0 -69.2)">
		<stop  offset="0" style="stop-color:#BFE3EE"/>
		<stop  offset="1" style="stop-color:#DFEFEA"/>
	</linearGradient>
	<path class="st17" d="M227,49.7c0-5.5-3.8-14.2-9.2-18.1V17.5l-11.6-6.6v20.8c-5.4,3.9-9.2,12.6-9.2,18.1c0,4.2,2.2,7,5.6,8.6
		c2.2,1.1,3.6,3.4,3.6,5.9V66h11.6v-1.8c0-2.5,1.3-4.8,3.6-5.9C224.9,56.7,227,53.9,227,49.7z"/>
	<path class="st18" d="M212.1,51.3c0,0-4.3,6.5-4.3,9.1s1.9,4.7,4.3,4.7c2.4,0,4.3-2.1,4.3-4.7S212.1,51.3,212.1,51.3z"/>
	<path class="st19" d="M212.1,63.2c-1.4,0-2.5-1.2-2.5-2.8c0-0.1,0-1.2,1.9-4.5c0.2-0.4,0.4-0.8,0.7-1.2c0.2,0.4,0.4,0.8,0.7,1.2
		c1.8,3.3,1.9,4.4,1.9,4.5C214.6,62,213.5,63.2,212.1,63.2z"/>
	<path class="st20" d="M230,88.7c-3.1-4.6-2.9-8.4-2.9-8.4h-30c0,0,0.1,3.8-2.9,8.4c-3.1,4.6,1.2,8.7,2.9,8.7h30
		C228.8,97.5,233.1,93.4,230,88.7z"/>
	<path class="st21" d="M200.4,97.5H197c-1.7,0-6-4.1-2.9-8.7c3.1-4.6,2.9-8.4,2.9-8.4h3.3c0,0,0.1,3.8-2.9,8.4
		C194.4,93.4,198.7,97.5,200.4,97.5z"/>
	<path class="st20" d="M203.8,70.2h16.5c1.9,0,3.7,1.2,4.5,2.9l1.5,3h-28.3l1.5-3C200.2,71.4,201.9,70.2,203.8,70.2z"/>
	<path class="st21" d="M205.4,70.2h-1.6c-1.9,0-3.7,1.2-4.5,2.9l-1.5,3h2.7l1.2-3C202.5,71.3,203.9,70.2,205.4,70.2z"/>
	<path class="st22" d="M228.3,76.1h-32.5c-1.1,0-2,1-1.9,2.1l0,0c0,1.1,0.8,2.1,1.9,2.1h32.5c1.1,0,2-1,1.9-2.1l0,0
		C230.3,77.1,229.4,76.2,228.3,76.1z"/>
	<path class="st23" d="M202.3,78.2L202.3,78.2c0-1.1,0.8-2.1,1.9-2.1l0,0h-2.4c-1.1,0-2,1-1.9,2.1l0,0c0,1.1,0.8,2.1,1.9,2.1l0,0
		h2.4C203.2,80.3,202.3,79.3,202.3,78.2L202.3,78.2z"/>
	<path class="st23" d="M198.6,78.2L198.6,78.2c0-1.1,0.8-2.1,1.9-2.1l0,0h-4.7c-1.1,0-2,1-1.9,2.1l0,0c0,1.1,0.8,2.1,1.9,2.1h4.7
		C199.4,80.2,198.6,79.3,198.6,78.2z"/>
	<path class="st22" d="M195,99.8L195,99.8c0,1.2,0.8,2.2,2,2.2h30c1.2,0,2.1-1.1,2-2.2l0,0c0-1.2-0.8-2.2-2-2.2h-30
		C195.9,97.6,195,98.5,195,99.8z"/>
	<path class="st23" d="M198.3,99.8L198.3,99.8c0-1.2,0.8-2.2,2-2.2H197c-1.2,0-2.1,1.1-2,2.2l0,0c0,1.2,0.8,2.2,2,2.2h3.3
		C199.1,101.9,198.2,100.9,198.3,99.8L198.3,99.8z"/>
	<path class="st23" d="M200.9,99.8L200.9,99.8c0-1.2,0.8-2.2,2-2.2h-1.2c-1.2,0-2.1,1.1-2,2.2l0,0c0,1.2,0.8,2.2,2,2.2h1.2
		C201.8,101.9,200.9,100.9,200.9,99.8z"/>
	<g id="SVGID">
		<g>
			<g>
				<defs>
					<polygon id="SVGID_6_" points="191.6,4.2 191.8,4.2 191.6,4.4 					"/>
				</defs>
				<clipPath id="SVGID_7_">
					<use xlink:href="#SVGID_6_"  style="overflow:visible;"/>
				</clipPath>
			</g>
			<g>
				<defs>
					<polygon id="SVGID_8_" points="191.6,4.2 191.8,4.2 191.6,4.4 					"/>
				</defs>
				<defs>
					<polygon id="SVGID_9_" points="191.3,3.9 191.1,3.9 191.3,3.7 					"/>
				</defs>
				<clipPath id="SVGID_10_">
					<use xlink:href="#SVGID_8_"  style="overflow:visible;"/>
				</clipPath>
				<clipPath id="SVGID_11_" class="st24">
					<use xlink:href="#SVGID_9_"  style="overflow:visible;"/>
				</clipPath>
				<g class="st25">
					<g>
						
							<radialGradient id="SVGID_12_" cx="212.0639" cy="-673.107" r="17.0197" gradientTransform="matrix(1 0 0 -1.1 0 -683.61)" gradientUnits="userSpaceOnUse">
							<stop  offset="0.22" style="stop-color:#000000"/>
							<stop  offset="0.34" style="stop-color:#030303"/>
							<stop  offset="0.44" style="stop-color:#0F0F10"/>
							<stop  offset="0.54" style="stop-color:#20201F"/>
							<stop  offset="0.63" style="stop-color:#393939"/>
							<stop  offset="0.71" style="stop-color:#595A5A"/>
							<stop  offset="0.8" style="stop-color:#808080"/>
							<stop  offset="0.88" style="stop-color:#AEAEAF"/>
							<stop  offset="0.96" style="stop-color:#E3E3E3"/>
							<stop  offset="1" style="stop-color:#FFFFFF"/>
						</radialGradient>
						<ellipse class="st26" cx="212.1" cy="56.7" rx="17" ry="18.8"/>
					</g>
				</g>
			</g>
		</g>
	</g>
	<g id="SVGID-2">
		<g>
			<g>
				<defs>
					<polygon id="SVGID_13_" points="191.6,4.2 191.8,4.2 191.6,4.4 					"/>
				</defs>
				<clipPath id="SVGID_14_">
					<use xlink:href="#SVGID_13_"  style="overflow:visible;"/>
				</clipPath>
			</g>
			<g>
				<defs>
					<polygon id="SVGID_15_" points="191.6,4.2 191.8,4.2 191.6,4.4 					"/>
				</defs>
				<defs>
					<polygon id="SVGID_16_" points="191.3,3.9 191.1,3.9 191.3,3.7 					"/>
				</defs>
				<clipPath id="SVGID_17_">
					<use xlink:href="#SVGID_15_"  style="overflow:visible;"/>
				</clipPath>
				<clipPath id="SVGID_18_" class="st27">
					<use xlink:href="#SVGID_16_"  style="overflow:visible;"/>
				</clipPath>
				<g class="st28">
					<g>
						
							<radialGradient id="SVGID_19_" cx="212.0639" cy="106.4027" r="9.505" gradientTransform="matrix(1 0 0 1 0 -69.2)" gradientUnits="userSpaceOnUse">
							<stop  offset="0.22" style="stop-color:#000000"/>
							<stop  offset="0.34" style="stop-color:#030303"/>
							<stop  offset="0.44" style="stop-color:#0F0F10"/>
							<stop  offset="0.54" style="stop-color:#20201F"/>
							<stop  offset="0.63" style="stop-color:#393939"/>
							<stop  offset="0.71" style="stop-color:#595A5A"/>
							<stop  offset="0.8" style="stop-color:#808080"/>
							<stop  offset="0.88" style="stop-color:#AEAEAF"/>
							<stop  offset="0.96" style="stop-color:#E3E3E3"/>
							<stop  offset="1" style="stop-color:#FFFFFF"/>
						</radialGradient>
						<ellipse class="st29" cx="212.1" cy="56.7" rx="9.5" ry="10.5"/>
					</g>
				</g>
			</g>
		</g>
	</g>
	<path class="st8" d="M126.3,13.4l11.8-8.1c-0.7-1.6-2.1-2.7-3.8-3c0,0-1.6-0.5-4.1,1.1c0,0,3.8-0.8,5.5,2.4l-0.2,0.9
		c-0.2-0.1-0.5-0.1-0.7,0c-0.2,0.1-0.4,0.4-0.3,0.7c0,0-0.7-0.3-0.9-0.3c-1.3-2-3.5-3.2-5.8-3.3c0,0-1.4,2.9,0.8,6.6l-0.7,1.5
		L126.3,13.4z M130.6,8.1c0.1,0.3,0,0.6-0.3,0.7C129.6,9,129,8.2,129,8.2c-0.4-0.9-0.6-2-0.4-3c1,0.2,2,0.8,2.7,1.5
		c0,0,0.6,0.9,0.1,1.4C131.1,8.3,130.8,8.3,130.6,8.1z"/>
	<path class="st30" d="M128.1,12.4l1.6-0.2c2.6,3.5,5.8,3.2,5.8,3.2c0.8-2.2,0.4-4.7-0.9-6.6c0.2-0.2,0.1-0.9,0.1-0.9
		c0.2,0.1,0.5,0.1,0.8,0c0.2-0.1,0.4-0.4,0.3-0.7l0.9,0.2c2.4,2.8,0.3,6,0.3,6c2.4-1.7,2.5-3.4,2.5-3.4c0.3-1.7-0.2-3.4-1.5-4.6
		l-11.8,8.1L128.1,12.4z M133,10.6c0.6-0.3,1.2,0.6,1.2,0.6c0.4,0.9,0.6,2,0.4,3c-1-0.2-2-0.8-2.7-1.5c0,0-0.6-0.9-0.1-1.4
		c0.2-0.2,0.5-0.2,0.8,0C132.6,11,132.8,10.7,133,10.6L133,10.6z"/>
	<path class="st31" d="M240.2,70.7h-0.8"/>
	<path class="st32" d="M238.2,70.7c-87.8-2-65.2-74.3-97.4-66"/>
	<path class="st31" d="M140.3,4.9l-0.7,0.2"/>
	<path class="st33" d="M249.2,63.8l-0.9,2c-0.2,0.4,0,0.9,0.4,1.2l0.3,0.1l-0.3,1.5l2.1,0.4l0.7-4.2L249.2,63.8z"/>
	<path class="st34" d="M250,67.5c0,0-0.7-0.5-0.6-1.2c0,0,1.2-0.4,0.9-0.8c-0.3-0.4-1,0.2-1,0.2s0.5-0.8,0.4-1.1
		c0,0-1.5-0.3-1.1-1.1c0.4-0.2,0.9-0.3,1.4-0.2c0.9,0.1,1.2,1.8,1.2,1.8L250,67.5z"/>
	<path class="st34" d="M250.3,63.5c0.3-0.1,0.6-0.1,0.8,0c1.3,0.3,2.1,1.6,1.8,2.9c0,0.2-0.1,0.3-0.2,0.5c-0.1,0.1-0.2,0.3-0.3,0.4
		c-0.4,0.3-0.8,0.4-1.2,0.4c-0.4,0-1,0.1-1.3-0.2c0,0,0.8-1.3,0.7-2.3C250.6,64.6,250.5,64,250.3,63.5z"/>
	<path class="st35" d="M247.8,82.3l-5.4,3.9l-3.8,7.2c-0.4,0.1-0.8,0-1.1,0c-0.4-0.2,3.2-9.8,3.3-9.9c0-0.2,4.1-4.7,4.1-4.7
		c0.5,0.8,1,1.5,1.6,2.3C246.9,81.4,247.4,81.9,247.8,82.3z"/>
	<polygon class="st36" points="244.9,79.2 246.5,82.8 247.3,91.2 247.8,101.3 248.9,101.4 250,89 251,80.7 	"/>
	<path class="st37" d="M247.7,69.8l-4.8,4.6l-2.5,0.9l0.2,1.1l3.7-0.4c0,0,4.7-3.2,4.7-3.3C248.9,72.5,247.7,69.8,247.7,69.8z"/>
	<path class="st38" d="M250.9,68.2l0.1,1l1,1.3c0.3,0.3,0.5,0.8,0.4,1.2l-1.5,9l-2-0.1l-4.1-1.4l-0.1-0.5l3-8.9l0.5-0.4l0.2-1
		L250.9,68.2z"/>
	<path class="st33" d="M238.1,76.8c0.4,0.2,0.8,0.1,1-0.3c0.2-0.4,0.1-0.8-0.3-1c-0.4-0.2-0.8-0.1-1,0.3
		C237.7,76.2,237.8,76.7,238.1,76.8z"/>
	<polygon class="st33" points="240.4,75.3 238.3,75.9 238.4,76.7 240.6,76.4 	"/>
	<path class="st38" d="M251.7,72.3l-5.8,3.9l-3.5-3.2l0.7-1.1l3,1.9l3.7-3.4C249.8,70.4,252.2,69.8,251.7,72.3z"/>
	<polygon class="st33" points="240.6,71.6 242.4,73 243.1,72 241.3,70.8 	"/>
	<path class="st33" d="M240.5,71.7c0.4,0.2,0.8,0.1,1-0.3c0.2-0.4,0.1-0.8-0.3-1c-0.4-0.2-0.8-0.1-1,0.3l0,0
		C240,71.1,240.1,71.5,240.5,71.7L240.5,71.7z"/>
	<path class="st39" d="M247.8,101.9c-0.6,0.2-1.2,0.1-1.8-0.1c0-0.2,0.3-0.3,0.5-0.3l1.2-0.2c0.2,0,1.2-0.2,1.2,0.1
		C248.8,101.7,248,101.8,247.8,101.9z"/>
	<path class="st39" d="M236.5,92.6c-0.3-0.1-0.6-0.1-0.9-0.1c-0.1,0-0.2,0-0.2,0.1s0.1,0.2,0.2,0.2c0.5,0.2,1,0.4,1.5,0.6l1.2,0.4
		c0,0,0,0,0.1,0c0.1-0.1,0.2-0.2,0.2-0.4c0-0.1-0.5-0.2-0.6-0.3C237.5,93,237,92.8,236.5,92.6z"/>
	<path class="st38" d="M250.6,68.7c0.5,0.3,1,0.6,1.5,0.9c0.4,0.4,0.4,2.1,0.4,2.2c-0.2,0.3-0.4,0.2-0.4,0.2c-0.5,0.1-0.7-0.7-1.1-1
		c-0.8-0.5-1.6-1.1-2.2-1.7c0,0-0.1-0.1,0-0.2c0,0,0,0,0.1-0.1C249.3,68.9,250,68.8,250.6,68.7z"/>
	<path class="st9" d="M54.4,35.7c0,0-1.8-2.4-1.8-5c0.1-1.7,0.7-3.3,1.7-4.7v-0.2H30.7c-2.9,0-5.2,2.1-5.2,4.7v0.8
		c0,2.6,2.4,4.7,5.2,4.7h23.7l0.1,0C54.4,35.9,54.4,35.7,54.4,35.7z"/>
	<g>
		<g>
			<defs>
				<path id="SVGID_20_" d="M54.4,35.7c0,0-1.8-2.4-1.8-5c0.1-1.7,0.7-3.3,1.7-4.7v-0.2H30.7c-2.9,0-5.2,2.1-5.2,4.7v0.8
					c0,2.6,2.4,4.7,5.2,4.7h23.7l0.1,0C54.4,35.9,54.4,35.7,54.4,35.7z"/>
			</defs>
			<clipPath id="SVGID_21_">
				<use xlink:href="#SVGID_20_"  style="overflow:visible;"/>
			</clipPath>
			<g class="st40">
				<rect x="32" y="26.8" class="st10" width="46.6" height="0.2"/>
				<path class="st10" d="M78.5,28.2H31.2v0.2h47.2C78.5,28.3,78.5,28.3,78.5,28.2z"/>
				<rect x="30.6" y="30.1" class="st10" width="47.8" height="0.2"/>
				<rect x="30.6" y="31.1" class="st10" width="47.8" height="0.2"/>
				<rect x="32.2" y="32" class="st10" width="46.6" height="0.2"/>
				<path class="st10" d="M78.8,33.3H31.5v0.2h47.2C78.7,33.5,78.8,33.4,78.8,33.3z"/>
				<rect x="30.9" y="34.7" class="st10" width="47.8" height="0.2"/>
				<rect x="30.9" y="36.2" class="st10" width="47.8" height="0.2"/>
			</g>
		</g>
	</g>
	<path class="st41" d="M44.4,25.9h10.2V25H36.8v0.8h2.9c-0.4,2.5-1,5-1.8,7.4c0,0.3-0.1,0.5-0.1,0.8c0,0.2,0,0.3,0,0.5
		c0.4,0.3,0.8,0.7,1.1,1h-2v0.8h17.8v-0.8H44.1c-1.4,0-2.7-0.8-3.3-2.1c-0.5-1-0.8-2.1-0.7-3.3c0-0.6,0.1-1.2,0.4-1.8
		C41.1,26.9,42.7,25.8,44.4,25.9z"/>
	<path class="st42" d="M39.2,31.2v-0.9c0-2.9,2.4-5.2,5.3-5.2H19.4c-2.9,0-5.2,2.4-5.2,5.2v0.9c0,2.9,2.4,5.2,5.2,5.2h25.1
		C41.6,36.5,39.2,34.1,39.2,31.2z"/>
	<rect x="20.3" y="25" class="st43" width="1.1" height="11.4"/>
	<rect x="22.4" y="25" class="st44" width="0.6" height="11.4"/>
	<path class="st45" d="M54.4,15c-2.4-0.9-43.7,0-43.7,0c-2.1,0-4.1,2.4-4.1,4.5s2,4.5,4.1,4.5c0,0,40.4,1.7,43.7,0
		C53.8,20.4,53.9,17.2,54.4,15z"/>
	<rect x="7.5" y="15.8" class="st10" width="46.6" height="0.2"/>
	<path class="st10" d="M54,17.2H6.8v0.2H54C54,17.3,54,17.2,54,17.2z"/>
	<rect x="6.2" y="19.1" class="st10" width="47.8" height="0.2"/>
	<rect x="6.2" y="20" class="st10" width="47.8" height="0.2"/>
	<path class="st10" d="M54.1,21.6H6.6v0.2h47.5C54.1,21.7,54.1,21.6,54.1,21.6z"/>
	<path class="st10" d="M54.3,23.4H7.9L8,23.6h46.4C54.4,23.6,54.3,23.5,54.3,23.4z"/>
	<path class="st11" d="M10.7,24c-2.1,0-4.1-2.4-4.1-4.5s2-4.5,4.1-4.5c0,0,41.1-0.9,43.7,0c0.1-0.5,0.2-0.9,0.2-0.9H10.9
		c-3,0-5.4,2.4-5.4,5.4l0,0c0,3,2.4,5.3,5.4,5.4c0,0,41.5,0.9,43.6,0c0-0.1-0.1-0.4-0.2-0.8C51,25.7,10.7,24,10.7,24z"/>
	<path class="st11" d="M11.5,2h37.1c1.6,0,2.9,1.3,2.9,2.9v6.5c0,1.6-1.3,2.9-2.9,2.9H11.5c-1.6,0-2.9-1.3-2.9-2.9V4.9
		C8.6,3.3,9.9,2,11.5,2z"/>
	<path class="st12" d="M15,2c-2.4,6.1,0.3,12.2,0.3,12.2h5.4c0,0-2-7,0.3-12.2C20.9,2,15,2,15,2z"/>
	<path class="st10" d="M39.9,2c-2.4,6.1,0.3,12.2,0.3,12.2h5.4c0,0-2-7,0.3-12.2C45.8,2,39.9,2,39.9,2z"/>
	<path class="st9" d="M49.9,46.8c0,0-1.8-2.4-1.8-5c0.1-1.7,0.7-3.3,1.7-4.7v-0.2H26.1c-2.9,0-5.2,2.1-5.2,4.7v0.8
		c0,2.6,2.4,4.7,5.2,4.7h23.7l0.1,0L49.9,46.8z"/>
	<g>
		<g>
			<defs>
				<path id="SVGID_22_" d="M49.9,46.8c0,0-1.8-2.4-1.8-5c0.1-1.7,0.7-3.3,1.7-4.7v-0.2H26.1c-2.9,0-5.2,2.1-5.2,4.7v0.8
					c0,2.6,2.4,4.7,5.2,4.7h23.7l0.1,0L49.9,46.8z"/>
			</defs>
			<clipPath id="SVGID_23_">
				<use xlink:href="#SVGID_22_"  style="overflow:visible;"/>
			</clipPath>
			<g class="st46">
				<rect x="27.3" y="38" class="st10" width="46.6" height="0.2"/>
				<path class="st10" d="M73.9,39.4H26.6v0.2h47.2C73.8,39.5,73.9,39.4,73.9,39.4z"/>
				<rect x="26" y="41.3" class="st10" width="47.8" height="0.2"/>
				<rect x="26" y="42.2" class="st10" width="47.8" height="0.2"/>
				<rect x="27.6" y="43.2" class="st10" width="46.6" height="0.2"/>
				<path class="st10" d="M74.1,44.5H26.9v0.2h47.2C74.1,44.7,74.1,44.6,74.1,44.5z"/>
				<rect x="26.3" y="45.8" class="st10" width="47.8" height="0.2"/>
				<rect x="26.3" y="47.4" class="st10" width="47.8" height="0.2"/>
			</g>
		</g>
	</g>
	<path class="st30" d="M39.8,37H50v-0.8H32.2V37h2.9c-0.4,2.5-0.9,5-1.8,7.4c0,0.3-0.1,0.5-0.1,0.8c0,0.2,0,0.3,0,0.5
		c0.4,0.3,0.7,0.7,1,1h-2v0.8h17.8v-0.8H39.5c-1.4,0-2.7-0.8-3.3-2.1c-0.5-1-0.8-2.1-0.7-3.3c0-0.6,0.1-1.2,0.4-1.8
		C36.5,38.1,38,37,39.8,37z"/>
	<path class="st12" d="M34.6,42.4v-0.9c0-2.9,2.4-5.2,5.2-5.2H14.7c-2.9,0-5.2,2.4-5.2,5.2v0.9c0,2.9,2.4,5.2,5.2,5.2h25.1
		C36.9,47.6,34.6,45.2,34.6,42.4z"/>
	<rect x="15.7" y="36.2" class="st10" width="1.1" height="11.4"/>
	<rect x="17.7" y="36.2" class="st5" width="0.6" height="11.4"/>
	<path class="st41" d="M43.8,53.7c0,0,22.1-2.2,24-4.7c1.9-2.5-8.3-10.6-8.3-10.6L38,40.5L43.8,53.7z"/>
	<path class="st30" d="M47.6,46.3l-3.7,7.4c0,0-19.7-22.7-18.5-25.6c0.8-2,3.3-6.5,3.3-6.5L47.6,46.3z"/>
	<polygon class="st9" points="69.2,42.2 66.1,48.2 45.7,52.3 48.8,46.1 	"/>
	<path class="st8" d="M28.7,21.6c-0.9,1.9,18.9,24.7,18.9,24.7s22.5-2.6,24.5-4.6c2.8-2.9-12.6-17.7-16.7-21.6c-0.6-0.6-1.5-1-2.4-1
		C48.5,18.8,29.6,19.7,28.7,21.6z"/>
	<path class="st47" d="M28.6,28.7L28.6,28.7c0.4-0.8,1.6-1.6,2.1-0.9L40,40.2c0.5,0.7,0.7,1.7,0.3,2.5l-0.1,0.2
		c-0.6,1.2-1.3,2.7-2.1,1.6l-9-12.4C28.3,31.1,28.1,29.9,28.6,28.7z"/>
	<circle class="st9" cx="42.5" cy="45.9" r="1.4"/>
	<circle class="st30" cx="42.5" cy="45.9" r="1.2"/>
	<path class="st10" d="M67.9,44.7c-3,0.5-5.9,1-8.8,1.6L67.9,44.7z"/>
	<path class="st10" d="M59.1,46.3l-8.6,1.6C53.4,47.4,56.2,46.8,59.1,46.3z"/>
	<polygon class="st10" points="68,44.6 68,44.6 47.8,48.2 47.6,48.4 67.9,44.7 	"/>
	<path class="st10" d="M67.9,44.7c-5.8,1.1-11.7,2.1-17.5,3.2L67.9,44.7z"/>
	<path class="st10" d="M68.4,43.8c-4.3,0.6-8.5,1.5-12.7,2.3L68.4,43.8z"/>
	<path class="st10" d="M55.7,46.1L50.9,47C52.5,46.7,54.1,46.4,55.7,46.1z"/>
	<polygon class="st10" points="68.4,43.7 68.4,43.7 48.2,47.4 48.1,47.6 68.3,43.9 	"/>
	<path class="st10" d="M67.2,45.9C61.4,47,55.6,48,49.8,49.1L67.2,45.9L67.2,45.9z"/>
	<polygon class="st10" points="67.3,45.9 47.1,49.5 47,49.6 47,49.7 67.2,46 	"/>
	<path class="st10" d="M67.2,46l-17.4,3.2C55.6,48.2,61.3,47.2,67.2,46L67.2,46z"/>
	<path class="st10" d="M66.6,47.2c-4.3,0.7-8.6,1.5-12.9,2.4L66.6,47.2L66.6,47.2z"/>
	<path class="st10" d="M53.7,49.6l-4.5,0.8C50.7,50.1,52.2,49.9,53.7,49.6z"/>
	<polygon class="st10" points="66.7,47.1 46.4,50.8 46.3,51 66.5,47.3 	"/>
	<path class="st10" d="M66.5,47.3l-8.6,1.6C60.8,48.4,63.7,47.9,66.5,47.3L66.5,47.3z"/>
	<path class="st10" d="M57.9,48.9c-2.9,0.5-5.9,1-8.8,1.6L57.9,48.9z"/>
</g>
</svg>
